HIERARCHY
ROOT hip
{
  OFFSET -0.570224 89.8853 2.43558
  CHANNELS 6 Xposition Yposition Zposition Zrotation Xrotation Yrotation
  JOINT abdomen
  {
    OFFSET 0 7.2397 0
    CHANNELS 6 Xposition Yposition Zposition Zrotation Xrotation Yrotation
    JOINT chest
    {
      OFFSET 0 16.546 0
      CHANNELS 6 Xposition Yposition Zposition Zrotation Xrotation Yrotation
      JOINT neck
      {
        OFFSET 0 34.2149 0
        CHANNELS 6 Xposition Yposition Zposition Zrotation Xrotation Yrotation
        JOINT head
        {
          OFFSET 0 6.2923 0
          CHANNELS 6 Xposition Yposition Zposition Zrotation Xrotation Yrotation
          End Site
          {
            OFFSET 0 21.2161 0
          }
        }
      }
      JOINT lCollar
      {
        OFFSET 4.0639 26.6115 -1.1234
        CHANNELS 6 Xposition Yposition Zposition Zrotation Xrotation Yrotation
        JOINT lShldr
        {
          OFFSET 14.1772 0 0
          CHANNELS 6 Xposition Yposition Zposition Zrotation Xrotation Yrotation
          JOINT lForeArm
          {
            OFFSET 26.1234 0 0
            CHANNELS 6 Xposition Yposition Zposition Zrotation Xrotation Yrotation
            JOINT lHand
            {
              OFFSET 27.7188 0 0
              CHANNELS 6 Xposition Yposition Zposition Zrotation Xrotation Yrotation
              JOINT lThumb1
              {
                OFFSET 2.2979 -0.4685 1.8313
                CHANNELS 6 Xposition Yposition Zposition Zrotation Xrotation Yrotation
                JOINT lThumb2
                {
                  OFFSET 5.2953 0 0
                  CHANNELS 6 Xposition Yposition Zposition Zrotation Xrotation Yrotation
                  JOINT lThumb3
                  {
                    OFFSET 3.0181 0 0
                    CHANNELS 6 Xposition Yposition Zposition Zrotation Xrotation Yrotation
                    End Site
                    {
                      OFFSET 2.6294 0 0
                    }
                  }
                }
              }
              JOINT lIndex1
              {
                OFFSET 9.3793 0.2991 2.5924
                CHANNELS 6 Xposition Yposition Zposition Zrotation Xrotation Yrotation
                JOINT lIndex2
                {
                  OFFSET 4.3461 0 0
                  CHANNELS 6 Xposition Yposition Zposition Zrotation Xrotation Yrotation
                  JOINT lIndex3
                  {
                    OFFSET 2.1666 0 0
                    CHANNELS 6 Xposition Yposition Zposition Zrotation Xrotation Yrotation
                    End Site
                    {
                      OFFSET 2.2048 0 0
                    }
                  }
                }
              }
              JOINT lMid1
              {
                OFFSET 9.4769 0.8376 0.2947
                CHANNELS 6 Xposition Yposition Zposition Zrotation Xrotation Yrotation
                JOINT lMid2
                {
                  OFFSET 4.772 0 0
                  CHANNELS 6 Xposition Yposition Zposition Zrotation Xrotation Yrotation
                  JOINT lMid3
                  {
                    OFFSET 2.8722 0 0
                    CHANNELS 6 Xposition Yposition Zposition Zrotation Xrotation Yrotation
                    End Site
                    {
                      OFFSET 2.0959 0 0
                    }
                  }
                }
              }
              JOINT lRing1
              {
                OFFSET 8.6586 1.0176 -1.7016
                CHANNELS 6 Xposition Yposition Zposition Zrotation Xrotation Yrotation
                JOINT lRing2
                {
                  OFFSET 4.5461 0 0
                  CHANNELS 6 Xposition Yposition Zposition Zrotation Xrotation Yrotation
                  JOINT lRing3
                  {
                    OFFSET 2.506 0 0
                    CHANNELS 6 Xposition Yposition Zposition Zrotation Xrotation Yrotation
                    End Site
                    {
                      OFFSET 2.2023 0 0
                    }
                  }
                }
              }
              JOINT lPinky1
              {
                OFFSET 7.6901 0.6618 -3.9096
                CHANNELS 6 Xposition Yposition Zposition Zrotation Xrotation Yrotation
                JOINT lPinky2
                {
                  OFFSET 3.2119 0 0
                  CHANNELS 6 Xposition Yposition Zposition Zrotation Xrotation Yrotation
                  JOINT lPinky3
                  {
                    OFFSET 1.924 0 0
                    CHANNELS 6 Xposition Yposition Zposition Zrotation Xrotation Yrotation
                    End Site
                    {
                      OFFSET 1.7829 0 0
                    }
                  }
                }
              }
            }
          }
        }
      }
      JOINT rCollar
      {
        OFFSET -4.0677 26.6109 -1.1234
        CHANNELS 6 Xposition Yposition Zposition Zrotation Xrotation Yrotation
        JOINT rShldr
        {
          OFFSET -14.1772 0 0
          CHANNELS 6 Xposition Yposition Zposition Zrotation Xrotation Yrotation
          JOINT rForeArm
          {
            OFFSET -26.1234 0 0
            CHANNELS 6 Xposition Yposition Zposition Zrotation Xrotation Yrotation
            JOINT rHand
            {
              OFFSET -27.7188 0 0
              CHANNELS 6 Xposition Yposition Zposition Zrotation Xrotation Yrotation
              JOINT rThumb1
              {
                OFFSET -2.2979 -0.4684 1.8313
                CHANNELS 6 Xposition Yposition Zposition Zrotation Xrotation Yrotation
                JOINT rThumb2
                {
                  OFFSET -5.2953 0 0
                  CHANNELS 6 Xposition Yposition Zposition Zrotation Xrotation Yrotation
                  JOINT rThumb3
                  {
                    OFFSET -3.0181 0 0
                    CHANNELS 6 Xposition Yposition Zposition Zrotation Xrotation Yrotation
                    End Site
                    {
                      OFFSET -2.6294 0 0
                    }
                  }
                }
              }
              JOINT rIndex1
              {
                OFFSET -9.3793 0.2991 2.5924
                CHANNELS 6 Xposition Yposition Zposition Zrotation Xrotation Yrotation
                JOINT rIndex2
                {
                  OFFSET -4.3461 0 0
                  CHANNELS 6 Xposition Yposition Zposition Zrotation Xrotation Yrotation
                  JOINT rIndex3
                  {
                    OFFSET -2.1666 0 0
                    CHANNELS 6 Xposition Yposition Zposition Zrotation Xrotation Yrotation
                    End Site
                    {
                      OFFSET -2.2048 0 0
                    }
                  }
                }
              }
              JOINT rMid1
              {
                OFFSET -9.4769 0.8376 0.2947
                CHANNELS 6 Xposition Yposition Zposition Zrotation Xrotation Yrotation
                JOINT rMid2
                {
                  OFFSET -4.772 0 0
                  CHANNELS 6 Xposition Yposition Zposition Zrotation Xrotation Yrotation
                  JOINT rMid3
                  {
                    OFFSET -2.8722 0 0
                    CHANNELS 6 Xposition Yposition Zposition Zrotation Xrotation Yrotation
                    End Site
                    {
                      OFFSET -2.0959 0 0
                    }
                  }
                }
              }
              JOINT rRing1
              {
                OFFSET -8.6586 1.0176 -1.7016
                CHANNELS 6 Xposition Yposition Zposition Zrotation Xrotation Yrotation
                JOINT rRing2
                {
                  OFFSET -4.5461 0 0
                  CHANNELS 6 Xposition Yposition Zposition Zrotation Xrotation Yrotation
                  JOINT rRing3
                  {
                    OFFSET -2.506 0 0
                    CHANNELS 6 Xposition Yposition Zposition Zrotation Xrotation Yrotation
                    End Site
                    {
                      OFFSET -2.2023 0 0
                    }
                  }
                }
              }
              JOINT rPinky1
              {
                OFFSET -7.6901 0.6618 -3.9096
                CHANNELS 6 Xposition Yposition Zposition Zrotation Xrotation Yrotation
                JOINT rPinky2
                {
                  OFFSET -3.2119 0 0
                  CHANNELS 6 Xposition Yposition Zposition Zrotation Xrotation Yrotation
                  JOINT rPinky3
                  {
                    OFFSET -1.924 0 0
                    CHANNELS 6 Xposition Yposition Zposition Zrotation Xrotation Yrotation
                    End Site
                    {
                      OFFSET -1.7829 0 0
                    }
                  }
                }
              }
            }
          }
        }
      }
    }
  }
  JOINT lThigh
  {
    OFFSET 8.7379 -0.0029 0.0005
    CHANNELS 6 Xposition Yposition Zposition Zrotation Xrotation Yrotation
    JOINT lShin
    {
      OFFSET 0 -46.6676 0
      CHANNELS 6 Xposition Yposition Zposition Zrotation Xrotation Yrotation
      JOINT lFoot
      {
        OFFSET 0 -40.1476 0
        CHANNELS 6 Xposition Yposition Zposition Zrotation Xrotation Yrotation
        JOINT lToes
        {
          OFFSET 0 -8.8846 14.2294
          CHANNELS 6 Xposition Yposition Zposition Zrotation Xrotation Yrotation
          End Site
          {
            OFFSET 0 0 6.296
          }
        }
      }
    }
  }
  JOINT rThigh
  {
    OFFSET -8.7379 0.0029 -0.0005
    CHANNELS 6 Xposition Yposition Zposition Zrotation Xrotation Yrotation
    JOINT rShin
    {
      OFFSET 0 -46.6676 0
      CHANNELS 6 Xposition Yposition Zposition Zrotation Xrotation Yrotation
      JOINT rFoot
      {
        OFFSET 0 -40.1476 0
        CHANNELS 6 Xposition Yposition Zposition Zrotation Xrotation Yrotation
        JOINT rToes
        {
          OFFSET 0 -8.8846 14.2294
          CHANNELS 6 Xposition Yposition Zposition Zrotation Xrotation Yrotation
          End Site
          {
            OFFSET 0 0 6.296
          }
        }
      }
    }
  }
}
MOTION
Frames:	4
Frame Time:	0.0333333
14.0007 80.8725 10.0873 -6.35423 8.99665 68.7083 1.77636e-15 7.2397 1.33227e-15 -3.48948 2.40542 8.44316 0 16.546 1.77636e-15 -7.81822 6.15483 17.2663 0 34.2149 1.77636e-15 -4.95046 40.9235 14.8259 1.77636e-15 6.2923 -1.42109e-14 -11.696 -14.4715 45.971 4.0639 26.6115 -1.1234 -3.37675 -4.05361 5.43831 14.1772 2.84217e-14 -1.77636e-15 -72.1995 -17.699 -36.6649 26.1234 0 0 -0.725442 1.32535 -122.613 27.7188 0 0 43.6336 3.13898 57.1688 2.2979 -0.4685 1.8313 41.7977 57.0324 -96.4075 5.2953 0 3.55271e-15 -30.6168 -8.54011 10.6803 3.0181 0 -3.55271e-15 -8.14209 -6.6282 11.1173 9.3793 0.2991 2.5924 -34.239 -2.82476 0.0609201 4.3461 -1.06581e-14 1.42109e-14 -61.0696 -6.48996 11.4433 2.1666 -1.42109e-14 2.84217e-14 -19.6136 -0.729455 3.78989 9.4769 0.8376 0.2947 -24.7017 -4.79115 9.00267 4.772 0 0 -59.139 -7.79151 13.8442 2.8722 0 0 -42.9585 -4.18424 12.3769 8.6586 1.0176 -1.7016 -41.2585 0.238105 7.34321 4.5461 -3.55271e-15 -1.42109e-14 -50.6434 -3.28547 6.93687 2.506 7.10543e-15 -2.84217e-14 -24.2642 -0.729077 4.73307 7.6901 0.6618 -3.9096 -51.4312 -12.6224 7.63102 3.2119 -3.55271e-15 0 -51.4428 -4.645 13.8674 1.924 0 0 -72.3509 -15.018 22.1401 -4.0677 26.6109 -1.1234 15.9706 -23.7426 33.5457 -14.1772 1.42109e-14 7.10543e-15 31.9038 23.7977 71.9567 -26.1234 0 7.10543e-15 0.782369 0.501357 65.3063 -27.7188 1.42109e-14 0 4.15058 -45.7513 -11.2389 -2.2979 -0.4684 1.8313 34.9222 26.2487 25.1597 -5.2953 0 1.42109e-14 -9.47822 -18.15 -41.0367 -3.0181 -1.42109e-14 0 -4.77459 -6.64277 -45.9008 -9.3793 0.2991 2.5924 1.76019 -0.760174 16.7436 -4.3461 0 -1.42109e-14 82.9787 -11.3023 -13.0739 -2.1666 0 -1.42109e-14 32.4204 -1.99003 -6.38552 -9.4769 0.8376 0.2947 45.7242 -6.84078 3.40921 -4.772 0 0 87.2742 -15.4094 -16.2419 -2.8722 0 -1.42109e-14 44.7843 -4.46775 -12.7933 -8.6586 1.0176 -1.7016 52.1685 -1.12006 3.15584 -4.5461 1.42109e-14 1.42109e-14 80.3111 -7.53541 -8.92568 -2.506 -7.10543e-15 0 47.932 -2.94346 -7.7734 -7.6901 0.6618 -3.9096 66.3573 -14.1302 8.75982 -3.2119 0 2.84217e-14 38.6774 -4.70149 -13.3432 -1.924 0 -1.42109e-14 39.9368 -4.93887 -15.3353 8.7379 -0.0029 0.0005 -10.8445 -47.0874 5.20903 0 -46.6676 0 28.3656 66.1746 -30.6258 -8.88178e-16 -40.1476 -5.32907e-15 1.52058 -31.172 -8.29912 1.77636e-15 -8.8846 14.2294 0.0001 0 -0 -8.7379 0.0029 -0.0005 -21.0805 11.2628 -26.0654 -7.10543e-15 -46.6676 -1.77636e-15 -8.1329 38.6501 0.581709 0 -40.1476 -3.55271e-15 22.0468 -21.2411 -3.09946 0 -8.8846 14.2294 -3.97569e-15 -3.18055e-15 -3.18055e-15 
13.9408 80.8899 10.1295 -6.25307 8.96889 68.8354 0 7.2397 1.33227e-15 -3.47806 2.45346 8.26225 3.55271e-15 16.546 1.33227e-15 -7.80581 6.26108 16.9089 0 34.2149 7.10543e-15 -5.31009 40.8904 14.9658 0 6.2923 0 -12.1776 -14.5325 45.8168 4.0639 26.6115 -1.1234 -3.13657 -4.10033 5.58291 14.1772 0 0 -71.31 -17.4998 -36.5933 26.1234 7.10543e-15 0 -0.724507 1.32674 -122.725 27.7188 0 3.55271e-15 40.2209 1.88027 52.1235 2.2979 -0.4685 1.8313 41.7977 57.0324 -96.4075 5.2953 0 0 -30.6168 -8.54011 10.6803 3.0181 0 0 -8.14209 -6.6282 11.1173 9.3793 0.2991 2.5924 -34.239 -2.82476 0.0609201 4.3461 0 -1.42109e-14 -61.0696 -6.48996 11.4433 2.1666 0 -2.84217e-14 -19.6136 -0.729455 3.78989 9.4769 0.8376 0.2947 -24.7017 -4.79115 9.00267 4.772 -7.10543e-15 -2.84217e-14 -59.139 -7.79151 13.8442 2.8722 0 -2.84217e-14 -42.9585 -4.18424 12.3769 8.6586 1.0176 -1.7016 -41.2585 0.238105 7.34321 4.5461 -1.77636e-15 0 -50.6434 -3.28547 6.93687 2.506 0 2.84217e-14 -24.2642 -0.729077 4.73307 7.6901 0.6618 -3.9096 -51.4312 -12.6224 7.63102 3.2119 0 1.42109e-14 -51.4428 -4.645 13.8674 1.924 0 0 -72.3509 -15.018 22.1401 -4.0677 26.6109 -1.1234 15.9368 -23.7884 33.3915 -14.1772 1.42109e-14 0 31.9797 23.6318 70.6622 -26.1234 -1.42109e-14 0 0.797882 0.537206 67.9056 -27.7188 2.84217e-14 7.10543e-15 0.6562 -43.1778 -7.1672 -2.2979 -0.4684 1.8313 34.9222 26.2487 25.1597 -5.2953 2.84217e-14 0 -9.47822 -18.15 -41.0367 -3.0181 -1.42109e-14 0 -4.77459 -6.64277 -45.9008 -9.3793 0.2991 2.5924 1.76019 -0.760174 16.7436 -4.3461 -1.42109e-14 -1.42109e-14 82.9787 -11.3023 -13.0739 -2.1666 0 1.42109e-14 32.4204 -1.99003 -6.38552 -9.4769 0.8376 0.2947 45.7242 -6.84078 3.40921 -4.772 1.42109e-14 -1.42109e-14 87.2742 -15.4094 -16.2419 -2.8722 -3.55271e-15 0 44.7843 -4.46775 -12.7933 -8.6586 1.0176 -1.7016 52.1685 -1.12006 3.15584 -4.5461 0 0 80.3111 -7.53541 -8.92568 -2.506 -5.32907e-15 0 47.932 -2.94346 -7.7734 -7.6901 0.6618 -3.9096 66.3573 -14.1302 8.75982 -3.2119 -7.10543e-15 -4.26326e-14 38.6774 -4.70149 -13.3432 -1.924 0 0 39.9368 -4.93887 -15.3353 8.7379 -0.0029 0.0005 -10.858 -46.9841 5.19051 -1.77636e-15 -46.6676 -1.42109e-14 28.3293 66.1068 -30.5754 -3.55271e-15 -40.1476 -3.55271e-15 1.45327 -31.0944 -8.43124 0 -8.8846 14.2294 0.0001 9.93923e-17 6.36111e-15 -8.7379 0.0029 -0.0005 -21.0067 11.2735 -26.029 7.10543e-15 -46.6676 -1.77636e-15 -8.12388 38.8854 0.35538 7.10543e-15 -40.1476 0 21.803 -21.3016 -3.10249 0 -8.8846 14.2294 -1.59028e-15 1.59028e-15 -0 
13.8758 80.8773 10.128 -6.09632 9.08608 68.6275 0 7.2397 8.88178e-16 -3.38464 2.50636 8.12382 0 16.546 0 -7.62194 6.38805 16.6203 0 34.2149 5.32907e-15 -5.95845 40.9041 15.3221 -3.55271e-15 6.2923 0 -13.3221 -14.568 46.0614 4.0639 26.6115 -1.1234 -2.54828 -4.18638 5.83814 14.1772 0 3.55271e-15 -71.6378 -16.2085 -38.8301 26.1234 0 -1.42109e-14 -0.709754 1.34897 -124.501 27.7188 1.42109e-14 5.32907e-15 39.7767 8.81924 54.4646 2.2979 -0.4685 1.8313 41.7977 57.0324 -96.4075 5.2953 7.10543e-15 3.55271e-15 -30.6168 -8.54011 10.6803 3.0181 -1.42109e-14 0 -8.14209 -6.6282 11.1173 9.3793 0.2991 2.5924 -34.239 -2.82476 0.0609201 4.3461 0 2.84217e-14 -61.0696 -6.48996 11.4433 2.1666 -7.10543e-15 2.84217e-14 -19.6136 -0.729455 3.78989 9.4769 0.8376 0.2947 -24.7017 -4.79115 9.00267 4.772 -3.55271e-15 2.84217e-14 -59.139 -7.79151 13.8442 2.8722 0 -2.84217e-14 -42.9585 -4.18424 12.3769 8.6586 1.0176 -1.7016 -41.2585 0.238105 7.34321 4.5461 0 1.42109e-14 -50.6434 -3.28547 6.93687 2.506 0 0 -24.2642 -0.729077 4.73307 7.6901 0.6618 -3.9096 -51.4312 -12.6224 7.63102 3.2119 3.55271e-15 1.42109e-14 -51.4428 -4.645 13.8674 1.924 0 0 -72.3509 -15.018 22.1401 -4.0677 26.6109 -1.1234 15.9257 -23.804 33.3377 -14.1772 0 -7.10543e-15 33.7339 22.9007 69.5409 -26.1234 0 7.10543e-15 0.807382 0.561689 69.653 -27.7188 0 -3.55271e-15 2.97381 -45.6965 -5.93665 -2.2979 -0.4684 1.8313 34.9222 26.2487 25.1597 -5.2953 -2.84217e-14 -1.42109e-14 -9.47822 -18.15 -41.0367 -3.0181 -1.42109e-14 0 -4.77459 -6.64277 -45.9008 -9.3793 0.2991 2.5924 1.76019 -0.760174 16.7436 -4.3461 0 0 82.9787 -11.3023 -13.0739 -2.1666 0 1.42109e-14 32.4204 -1.99003 -6.38552 -9.4769 0.8376 0.2947 45.7242 -6.84078 3.40921 -4.772 0 -1.42109e-14 87.2742 -15.4094 -16.2419 -2.8722 -7.10543e-15 0 44.7843 -4.46775 -12.7933 -8.6586 1.0176 -1.7016 52.1685 -1.12006 3.15584 -4.5461 0 0 80.3111 -7.53541 -8.92568 -2.506 -5.32907e-15 -1.42109e-14 47.932 -2.94346 -7.7734 -7.6901 0.6618 -3.9096 66.3573 -14.1302 8.75982 -3.2119 -7.10543e-15 -2.84217e-14 38.6774 -4.70149 -13.3432 -1.924 -3.55271e-15 0 39.9368 -4.93887 -15.3353 8.7379 -0.0029 0.0005 -10.9145 -46.9221 5.21173 0 -46.6676 7.10543e-15 28.2254 66.1023 -30.4637 1.77636e-15 -40.1476 -7.10543e-15 1.40143 -31.0549 -8.29871 -1.77636e-15 -8.8846 14.2294 0.0001 4.96962e-17 9.54166e-15 -8.7379 0.0029 -0.0005 -21.2178 11.1165 -26.0468 0 -46.6676 -1.77636e-15 -8.38766 39.1659 0.615301 7.10543e-15 -40.1476 0 21.6096 -21.4664 -3.07003 7.10543e-15 -8.8846 14.2294 1.59028e-15 0 -0 
13.8227 80.8441 10.1115 -5.9586 9.37449 68.2503 0 7.2397 -8.88178e-16 -3.24973 2.50796 8.16458 -1.77636e-15 16.546 4.44089e-15 -7.33941 6.41082 16.6758 1.77636e-15 34.2149 -3.55271e-15 -6.26725 41.0909 15.581 3.55271e-15 6.2923 0 -13.9851 -14.1942 46.6217 4.0639 26.6115 -1.1234 -1.80166 -4.26083 6.04523 14.1772 -2.84217e-14 -3.55271e-15 -72.8045 -17.0518 -39.252 26.1234 0 0 -0.717411 1.33762 -123.588 27.7188 0 -8.88178e-15 42.1253 6.85687 58.0369 2.2979 -0.4685 1.8313 41.7977 57.0324 -96.4075 5.2953 0 3.55271e-15 -30.6168 -8.54011 10.6803 3.0181 1.42109e-14 1.77636e-15 -8.14209 -6.6282 11.1173 9.3793 0.2991 2.5924 -34.239 -2.82476 0.0609201 4.3461 -3.55271e-15 -2.84217e-14 -61.0696 -6.48996 11.4433 2.1666 0 0 -19.6136 -0.729455 3.78989 9.4769 0.8376 0.2947 -24.7017 -4.79115 9.00267 4.772 -3.55271e-15 0 -59.139 -7.79151 13.8442 2.8722 0 0 -42.9585 -4.18424 12.3769 8.6586 1.0176 -1.7016 -41.2585 0.238105 7.34321 4.5461 0 -1.42109e-14 -50.6434 -3.28547 6.93687 2.506 0 -2.84217e-14 -24.2642 -0.729077 4.73307 7.6901 0.6618 -3.9096 -51.4312 -12.6224 7.63102 3.2119 -7.10543e-15 1.42109e-14 -51.4428 -4.645 13.8674 1.924 0 0 -72.3509 -15.018 22.1401 -4.0677 26.6109 -1.1234 15.8862 -23.7665 33.4802 -14.1772 0 -7.10543e-15 33.4206 22.2875 71.4913 -26.1234 1.42109e-14 -1.42109e-14 0.794517 0.529074 67.3205 -27.7188 -1.42109e-14 -1.06581e-14 3.73917 -46.5346 -10.8033 -2.2979 -0.4684 1.8313 34.9222 26.2487 25.1597 -5.2953 0 7.10543e-15 -9.47822 -18.15 -41.0367 -3.0181 1.42109e-14 -1.42109e-14 -4.77459 -6.64277 -45.9008 -9.3793 0.2991 2.5924 1.76019 -0.760174 16.7436 -4.3461 -1.42109e-14 2.84217e-14 82.9787 -11.3023 -13.0739 -2.1666 1.42109e-14 2.84217e-14 32.4204 -1.99003 -6.38552 -9.4769 0.8376 0.2947 45.7242 -6.84078 3.40921 -4.772 0 0 87.2742 -15.4094 -16.2419 -2.8722 1.42109e-14 -1.42109e-14 44.7843 -4.46775 -12.7933 -8.6586 1.0176 -1.7016 52.1685 -1.12006 3.15584 -4.5461 0 0 80.3111 -7.53541 -8.92568 -2.506 -3.55271e-15 -1.42109e-14 47.932 -2.94346 -7.7734 -7.6901 0.6618 -3.9096 66.3573 -14.1302 8.75982 -3.2119 -7.10543e-15 2.84217e-14 38.6774 -4.70149 -13.3432 -1.924 0 2.84217e-14 39.9368 -4.93887 -15.3353 8.7379 -0.0029 0.0005 -11.0422 -46.944 5.25163 -1.77636e-15 -46.6676 7.10543e-15 27.9922 66.1434 -30.2589 1.77636e-15 -40.1476 -3.55271e-15 1.38323 -31.0484 -8.05425 0 -8.8846 14.2294 0.0001 9.93923e-17 -0 -8.7379 0.0029 -0.0005 -21.6351 10.8991 -26.0981 -7.10543e-15 -46.6676 -3.55271e-15 -8.65899 39.3085 0.958235 7.10543e-15 -40.1476 0 21.5653 -21.6753 -3.01085 -7.10543e-15 -8.8846 14.2294 3.18055e-15 1.59028e-15 6.36111e-15 
